# xmcd
#
# Track frame offsets:
# 150
# 16077
# 30860
# 50057
# 69252
# 83625
# 99402
# 115375
# 131262
# 146832
# 161812
# 178052
# 196305
# 214332
# 232117
# 250745
#
# Disc length: 3548 seconds
#
#
# Revision: 0
# Processed by: cddbd v1.5.2PL0 Copyright (c) Steve Scherf et al.
# Submitted via: FreeRIP 2.951 
#
DISCID=d90dda10
DTITLE=Julio Iglesias - ELIAS FILHO, CD's, MP3 EM SEU CELULAR 9913-7768 - 8108-2022
DYEAR=2010
DGENRE=Acid Jazz
TTITLE0=To All the Girls I've Loved Before
TTITLE1=Crazy
TTITLE2=When I Need You
TTITLE3=Vincent (Starry Starry Night)
TTITLE4=And I Love Her
TTITLE5=Feelings [Live]
TTITLE6=If You Go Away
TTITLE7=Crazy in Love
TTITLE8=When I Fall in Love
TTITLE9=Can't Help Falling in Love
TTITLE10=As Time Goes By [Live]
TTITLE11=Moonlight Lady
TTITLE12=When You Tell Me That You Love Me
TTITLE13=Mona Lisa
TTITLE14=99 Miles from L.A.
TTITLE15=Love Has Been a Friend to Me
EXTD=
EXTT0=
EXTT1=
EXTT2=
EXTT3=
EXTT4=
EXTT5=
EXTT6=
EXTT7=
EXTT8=
EXTT9=
EXTT10=
EXTT11=
EXTT12=
EXTT13=
EXTT14=
EXTT15=
PLAYORDER=
